<?xml version="1.0" encoding="utf-8"?>
<!-- Generator: Adobe Illustrator 22.0.0, SVG Export Plug-In . SVG Version: 6.00 Build 0)  -->
<svg version="1.1" id="Layer_1" xmlns="http://www.w3.org/2000/svg" xmlns:xlink="http://www.w3.org/1999/xlink" x="0px" y="0px"
	 viewBox="0 0 2000 2000" style="enable-background:new 0 0 2000 2000;" xml:space="preserve">
<g>
	<path d="M273.2,1636.4L273.2,1636.4l0,182l0,0c151.1,18.9,302.7,31.9,454.6,39h0L1000,2000l272.7-142.6h0
		c151.7-7.1,303.1-20,454-38.9l0.6-0.1v-182l-0.6,0.1C1244.1,1696.9,755.8,1696.9,273.2,1636.4z"/>
	<path d="M785.3,566.9L601,942.6c-11,22.5-37,33.3-60.7,25.4l-176.5-58.9C297.9,1179.1,317,1595,317,1595l0.5,0
		c456.4,55.2,912.4,55.1,1365.5,0h0c0,0,19.4-415.8-46.6-685.9L1459.7,968c-23.7,7.9-49.7-2.9-60.7-25.4l-184.4-375.6
		c-14.3-29.2,2.6-64.1,34.5-70.9l95.2-20.3c-87.1-69.1-199.3-112.2-343.8-112.2c-144.8,0-257.2,43.1-344.3,112.3l94.7,20.2
		C782.7,502.8,799.7,537.7,785.3,566.9z M931.3,520.3c1.1-35.7,30.2-64.8,66-66c39.5-1.3,71.7,31,70.4,70.4
		c-1.1,35.7-30.2,64.8-66,66C962.3,592,930,559.7,931.3,520.3z M908.5,861.8c0.9-48.7,40.6-88.4,89.3-89.3
		c51.6-1,93.7,41.1,92.7,92.7c-0.9,48.7-40.6,88.4-89.3,89.3C949.6,955.4,907.6,913.4,908.5,861.8z M867.6,1236.6
		c10.7-41.9,54.2-85.4,96.1-96.1c103.1-26.3,194.1,64.8,167.8,167.8c-10.7,41.9-54.2,85.4-96.1,96.1
		C932.3,1430.7,841.3,1339.7,867.6,1236.6z"/>
	<path d="M566.1,868.4l132.1-264.3c14.7-29.5-2.6-64.9-34.9-71.4l-390.8-78.2L0,0l90.5,727.5l412.3,164.9
		C526.9,902.1,554.4,891.6,566.1,868.4z"/>
	<path d="M1727.5,454.5l-390.8,78.2c-32.3,6.5-49.7,41.9-34.9,71.4l132.1,264.3c11.6,23.3,39.1,33.7,63.3,24.1l412.3-164.9L2000,0
		L1727.5,454.5z"/>
</g>
</svg>
