<?xml version="1.0" encoding="utf-8"?>
<!-- Generator: Adobe Illustrator 22.0.0, SVG Export Plug-In . SVG Version: 6.00 Build 0)  -->
<svg version="1.1" id="Layer_1" xmlns="http://www.w3.org/2000/svg" xmlns:xlink="http://www.w3.org/1999/xlink" x="0px" y="0px"
	 viewBox="0 0 2000 2000" style="enable-background:new 0 0 2000 2000;" xml:space="preserve">
<g>
	<path d="M636.4,1363.6L636.4,1363.6l0-1091.6c0-50.2-40.7-90.2-90.9-90.2l0,977C545.5,1235.6,578.2,1309.3,636.4,1363.6z"/>
	<path d="M1454.5,1158.8v-977c-50.2,0-90.9,40-90.9,90.2v1091.6l0,0C1421.8,1309.3,1454.5,1235.6,1454.5,1158.8z"/>
	<path d="M1951.3,181.8C1888.5,73.1,1771,0,1636.4,0c-50.2,0-90.9,40.7-90.9,90.9v1090.9c0,301.2-244.2,454.5-545.5,454.5
		s-545.4-153.3-545.4-454.5V90.9c0-50.2-40.7-90.9-90.9-90.9c-134.6,0-252.1,73.1-315,181.8C17.7,235.3,0,297.4,0,363.6h0V500
		c0,75.3,61.1,136.4,136.4,136.4S272.7,575.3,272.7,500c0-2.4-0.1-4.7-0.2-7c0.1-0.3,0.1-0.6,0.2-0.8v780.6
		c0,401.7,325.6,727.3,727.3,727.3c401.7,0,727.3-325.6,727.3-727.3V492.1c0.1,0.3,0.1,0.6,0.2,0.8c-0.1,2.3-0.2,4.7-0.2,7
		c0,75.3,61.1,136.4,136.4,136.4S2000,575.3,2000,500V363.6C2000,297.4,1982.3,235.3,1951.3,181.8z M272.7,451.6
		c0-0.1,0-0.2-0.1-0.3c-1.7-48.7-41.7-87.7-90.8-87.7v0h-0.3c-50.1-0.2-90.6-40.8-90.6-90.9c0-50.2,40.7-90.9,90.9-90.9
		c50.2,0,90.9,40.7,90.9,90.9V451.6z M1818.5,363.6h-0.3v0c-49.1,0-89.1,39-90.8,87.7c0,0.1,0,0.2-0.1,0.3V272.7
		c0-50.2,40.7-90.9,90.9-90.9c50.2,0,90.9,40.7,90.9,90.9C1909.1,322.8,1868.6,363.5,1818.5,363.6z"/>
	<rect x="818.2" y="272.7" width="90.9" height="1272.7"/>
	<rect x="1090.9" y="272.7" width="90.9" height="1272.7"/>
</g>
</svg>
