<?xml version="1.0" encoding="utf-8"?>
<!-- Generator: Adobe Illustrator 22.0.0, SVG Export Plug-In . SVG Version: 6.00 Build 0)  -->
<svg version="1.1" id="Layer_1" xmlns="http://www.w3.org/2000/svg" xmlns:xlink="http://www.w3.org/1999/xlink" x="0px" y="0px"
	 viewBox="0 0 2000 2000" style="enable-background:new 0 0 2000 2000;" xml:space="preserve">
<path d="M1833,333.5l-750-283c-27.6,0-50-22.4-50-50h-67c0,27.6-22.4,50-50,50l-749,283c0,333-167,334-167,334
	c0,667,999,1332,999,1332s1001-665,1001-1332C2000,667.5,1833,666.5,1833,333.5z M999.2,1831.5l-0.7-1663h29
	c0,23,18.6,41.6,41.6,41.6L1693,445.5c0,277,138.9,277.9,138.9,277.9C1831.9,1278.3,999.2,1831.5,999.2,1831.5z"/>
</svg>
