<?xml version="1.0" encoding="utf-8"?>
<!-- Generator: Adobe Illustrator 22.0.0, SVG Export Plug-In . SVG Version: 6.00 Build 0)  -->
<svg version="1.1" id="Layer_1" xmlns="http://www.w3.org/2000/svg" xmlns:xlink="http://www.w3.org/1999/xlink" x="0px" y="0px"
	 viewBox="0 0 2000 2000" style="enable-background:new 0 0 2000 2000;" xml:space="preserve">
<g>
	<path d="M1090.9,909.1V272.7c50.2,0,90.9-40.7,90.9-90.9c0-50.2-40.7-90.9-90.9-90.9c0-50.2-40.7-90.9-90.9-90.9
		s-90.9,40.7-90.9,90.9c-50.2,0-90.9,40.7-90.9,90.9c0,50.2,40.7,90.9,90.9,90.9v636.4v181.8v636.4c-50.2,0-90.9,40.7-90.9,90.9
		c0,50.2,40.7,90.9,90.9,90.9c0,50.2,40.7,90.9,90.9,90.9s90.9-40.7,90.9-90.9c50.2,0,90.9-40.7,90.9-90.9
		c0-50.2-40.7-90.9-90.9-90.9v-636.4V909.1z"/>
	<path d="M181.8,818.2c-50.2,0-90.9,40.7-90.9,90.9C40.7,909.1,0,949.8,0,1000s40.7,90.9,90.9,90.9c0,50.2,40.7,90.9,90.9,90.9
		c50.2,0,90.9-40.7,90.9-90.9c0,0,0,0,0,0h545.5V909.1H272.7C272.7,858.9,232,818.2,181.8,818.2z"/>
	<path d="M1909.1,909.1c0-50.2-40.7-90.9-90.9-90.9c-50.2,0-90.9,40.7-90.9,90.9h-545.5v181.8h545.5c0,0,0,0,0,0
		c0,50.2,40.7,90.9,90.9,90.9c50.2,0,90.9-40.7,90.9-90.9c50.2,0,90.9-40.7,90.9-90.9S1959.3,909.1,1909.1,909.1z"/>
</g>
</svg>
