<?xml version="1.0" encoding="utf-8"?>
<!-- Generator: Adobe Illustrator 22.0.0, SVG Export Plug-In . SVG Version: 6.00 Build 0)  -->
<svg version="1.1" id="Layer_1" xmlns="http://www.w3.org/2000/svg" xmlns:xlink="http://www.w3.org/1999/xlink" x="0px" y="0px"
	 viewBox="0 0 2000 2000" style="enable-background:new 0 0 2000 2000;" xml:space="preserve">
<g>
	<path d="M1333.2,1084L332.2,0H50C22.4,0,0,22.4,0,50v283.1l1084,1000L1333.2,1084z"/>
	<path d="M1727.1,1133.5L1583.3,918L916,1584.3l216.5,144.7c19.9,13.3,46.3,10.7,63.2-6.2l525.3-526.2
		C1737.8,1179.7,1740.4,1153.3,1727.1,1133.5z"/>
	<path d="M1832.9,1667.8c-19.3,0-37.9,3.3-55.1,9.4l-195-260.5l-167.1,167.1l260.7,194.5c-6.2,17.4-9.5,36.1-9.5,55.6
		c0,91.7,74.4,166.1,166.1,166.1c91.7,0,166.1-74.4,166.1-166.1C1999,1742.2,1924.6,1667.8,1832.9,1667.8z"/>
</g>
</svg>
