<?xml version="1.0" encoding="utf-8"?>
<!-- Generator: Adobe Illustrator 22.0.0, SVG Export Plug-In . SVG Version: 6.00 Build 0)  -->
<svg version="1.1" id="Layer_1" xmlns="http://www.w3.org/2000/svg" xmlns:xlink="http://www.w3.org/1999/xlink" x="0px" y="0px"
	 viewBox="0 0 2000 2000" style="enable-background:new 0 0 2000 2000;" xml:space="preserve">
<g>
	<path d="M1200.7,1382.4l182.4-181.7c-18-19.8-17.2-50.2,1.7-69.1L583,250L499,83L0,0l83,499l167,84l881.8,801
		C1150.7,1365.2,1181,1364.5,1200.7,1382.4z"/>
	<polygon points="1833,1250 1500,916 1584,1167 1167,1584 916,1500 1250,1833 1250,1751 1750,1252 	"/>
	<path d="M2000,1751h-83l-214.6-215.5c-19.6,19.6-51.3,19.5-70.8-0.1l-96.1,96.1c19.6,19.5,19.6,51.2,0.1,70.8L1751,1917v83
		L2000,1751z"/>
</g>
</svg>
