<?xml version="1.0" encoding="utf-8"?>
<!-- Generator: Adobe Illustrator 22.0.0, SVG Export Plug-In . SVG Version: 6.00 Build 0)  -->
<svg version="1.1" id="Layer_1" xmlns="http://www.w3.org/2000/svg" xmlns:xlink="http://www.w3.org/1999/xlink" x="0px" y="0px"
	 viewBox="0 0 2000 2000" style="enable-background:new 0 0 2000 2000;" xml:space="preserve">
<path d="M1991.5,1468.4c-11.3-11.3-29.6-11.3-40.9,0l-100.1,100.1l-360.3-360.3l79.6-79.6l97.9,97.9L1777,677.6l-328.1,328.1
	L620.6,177.5L0,0l177.5,620.6l727.7,727.7c11.3,11.3,29.6,11.3,40.9,0c11.3-11.3,11.3-29.6,0-40.9L229,590.2L84.3,84.3L590.2,229
	l777.6,777.6l-280.3,280.3L309.4,509.6l-78.1-313.4c-3.9-15.5-19.6-24.9-35.1-21.1c-15.5,3.9-24.9,19.6-21.1,35.1l82,329
	l829.6,828.6l-181.6,181.6c-11.3,11.3-11.3,29.6,0,40.9c11.3,11.3,29.6,11.3,40.9,0L1683,853.4l-50.9,255.5l-62.2-62.2L1046.6,1570
	l62.1,61.3l-348.9,70.3c-15.7,3.2-25.8,18.4-22.7,34.1c2.8,13.7,14.8,23.2,28.3,23.2c1.9,0,3.8-0.2,5.7-0.6l455.5-91.8l-98-96.8
	l79.5-79.5l341.3,340.3c5.6,5.6,13,8.4,20.4,8.4c4.7,0,9.3-1.1,13.6-3.4L1419,2000h242.9l249.6-249.6c11.3-11.3,11.3-29.6,0-40.9
	c-11.3-11.3-29.6-11.3-40.9,0l-232.6,232.6h-79.2l432.8-432.8C2002.8,1498,2002.8,1479.7,1991.5,1468.4z M1590.3,1789.5
	l-301.6-300.7l200.2-200.2l281.1,281.1l-120,119.3l-220.7-220.7c-11.3-11.3-29.6-11.3-40.9,0c-11.3,11.3-11.3,29.6,0,40.9L1649,1770
	l-53.6,53.6C1601.2,1812.6,1599.5,1798.7,1590.3,1789.5z"/>
</svg>
