<?xml version="1.0" encoding="utf-8"?>
<!-- Generator: Adobe Illustrator 22.0.0, SVG Export Plug-In . SVG Version: 6.00 Build 0)  -->
<svg version="1.1" id="Layer_1" xmlns="http://www.w3.org/2000/svg" xmlns:xlink="http://www.w3.org/1999/xlink" x="0px" y="0px"
	 viewBox="0 0 2000 2000" style="enable-background:new 0 0 2000 2000;" xml:space="preserve">
<g>
	<path d="M1129.6,1312.2l182.6-182.6c-18.4-19.9-17.8-50.7,1.4-69.9L352.4,18.8c-9.5-10.3-23-16.2-37.1-16.2H53
		C25.2,2.5,2.6,25.1,2.6,53v263.3c0,14.1,5.9,27.5,16.2,37.1l1041,960.3C1078.9,1294.5,1109.8,1293.9,1129.6,1312.2z"/>
	<path d="M1815.2,975l-97.1-97.1c-19.7-19.7-51.6-19.7-71.3,0l-768.9,768.9c-19.7,19.7-19.7,51.5-0.1,71.2l96.3,96.9
		c19.7-19.7,51.7-19.7,71.4,0.1l769.7-768.8C1795.4,1026.6,1795.4,994.6,1815.2,975z"/>
	<path d="M1982.7,1731.4l-348.3-349.2c-19.7,19.7-51.7,19.7-71.4,0l-181.7,181.7c19.8,19.7,19.9,51.7,0.1,71.4l350,347.5
		c19.7,19.6,51.5,19.5,71.2-0.1l180-180C2002.3,1783,2002.3,1751.1,1982.7,1731.4z"/>
</g>
</svg>
