<?xml version="1.0" encoding="utf-8"?>
<!-- Generator: Adobe Illustrator 22.0.0, SVG Export Plug-In . SVG Version: 6.00 Build 0)  -->
<svg version="1.1" id="Layer_1" xmlns="http://www.w3.org/2000/svg" xmlns:xlink="http://www.w3.org/1999/xlink" x="0px" y="0px"
	 viewBox="0 0 2000 2000" style="enable-background:new 0 0 2000 2000;" xml:space="preserve">
<g>
	<path d="M1152,1767.5c78.9-26.3,163.6-29.5,244.3-9.4l0,0c149,37.2,306.6-6.4,415.2-115l188.6-188.6l-325-65
		c-84.9-17-172.7-11.5-254.9,15.9h0c-96,32-179.9,92.5-240.6,173.4l-88.6,118.1v-459.2c0-156.9,31.9-312.2,93.7-456.4l0,0
		C1303.5,503.9,1455.2,241.6,1636.4,0l0,0l0,0c-118,59-223.9,137.7-313.6,231.8l-100-100c-26.2-26.2-61.8-40.9-98.9-40.9h0
		c-21.7,0-43.1,5.1-62.5,14.8l-152.3,76.2H1033c37.1,0,72.6,14.7,98.9,40.9l107.4,107.4c-51.9,68.7-96.2,143.5-131.6,223.2
		l-98.7,222c-65.8,148.1-99.9,308.4-99.9,470.5V1697l-88.6-118.1c-60.7-80.9-144.7-141.4-240.6-173.4h0
		c-82.1-27.4-170-32.8-254.9-15.9l-325,65l188.6,188.6c108.6,108.6,266.2,152.2,415.2,115l0,0c80.7-20.2,165.4-16.9,244.3,9.4
		l61,20.3v121.2L454.5,2000h454.5h181.8h454.5l-454.5-90.9v-121.2L1152,1767.5z"/>
	<path d="M537.4,1090.9L537.4,1090.9c65.1,0,129.3,15.2,187.6,44.3l93.3,46.6l-22.3-66.8C752.7,985.4,651,883.7,521.4,840.5h0
		c-44.3-14.8-90.6-22.3-137.3-22.3H90.9l149.9,149.9C319.4,1046.7,426.1,1090.9,537.4,1090.9z"/>
	<path d="M676.6,545.5L676.6,545.5c33.5,0,66.6,6.4,97.7,18.8l179.9,72.1l-51.7-103.5C877.1,482,835.8,440.8,785,415.4l-48-24
		c-36.5-18.2-76.7-27.7-117.5-27.7H408.8l57.9,77C516.3,506.6,594,545.5,676.6,545.5z"/>
	<path d="M1480.9,839.7l-9.2,3.1c-125.2,41.7-223.5,140-265.3,265.3l-24.6,73.8l93.3-46.6c58.2-29.1,122.5-44.3,187.6-44.3h0
		c111.2,0,217.9-44.2,296.6-122.8l149.9-149.9h-295.6C1568.4,818.2,1523.7,825.4,1480.9,839.7z"/>
</g>
</svg>
