<?xml version="1.0" encoding="utf-8"?>
<!-- Generator: Adobe Illustrator 22.0.0, SVG Export Plug-In . SVG Version: 6.00 Build 0)  -->
<svg version="1.1" id="Layer_1" xmlns="http://www.w3.org/2000/svg" xmlns:xlink="http://www.w3.org/1999/xlink" x="0px" y="0px"
	 viewBox="0 0 2000 2000" style="enable-background:new 0 0 2000 2000;" xml:space="preserve">
<g>
	<path d="M2000,1000c0-236.1-81.8-453-218.6-624.1l-235.9,78.7l78.7-235.9C1453.1,81.8,1236.1,0,1000,0H636.4v181.8L454.5,0H0
		l363.6,454.6h681.8c276.2,0,500,223.9,500,500v863.6l454.6,90.9v-363.6l-181.8-181.8H2000V1000z"/>
	<path d="M1004.5,545.5H363.6v90.9h600c220.9,0,400,179.1,400,400v781.8h90.9V995.5C1454.5,746.9,1253.1,545.5,1004.5,545.5z"/>
	<path d="M972.7,727.3H350.8c-45.9,0-85.9,31.2-97,75.7l-72,287.9h440.6c158.3,0,286.6,128.3,286.6,286.6v167.9L727.3,2000h545.5
		v-972.7C1272.7,861.6,1138.4,727.3,972.7,727.3z"/>
	<path d="M818.2,1363.6c0-100.4-81.4-181.8-181.8-181.8H129.9c-22.9,0-42.9,15.6-48.5,37.9L0,1545.5l363.6-181.8L818.2,1363.6
		L818.2,1363.6z"/>
</g>
</svg>
