<?xml version="1.0" encoding="utf-8"?>
<!-- Generator: Adobe Illustrator 22.0.0, SVG Export Plug-In . SVG Version: 6.00 Build 0)  -->
<svg version="1.1" id="Layer_1" xmlns="http://www.w3.org/2000/svg" xmlns:xlink="http://www.w3.org/1999/xlink" x="0px" y="0px"
	 viewBox="0 0 2000 2000" style="enable-background:new 0 0 2000 2000;" xml:space="preserve">
<g>
	<path d="M1676.2,670.4c-132,88-305.8,80.5-429.7-18.6l-0.1-0.1c-144.1-115.3-348.8-115.2-492.9,0l0,0
		c-123.9,99.1-297.7,106.7-429.8,18.7L0,454.5l272.7,727.3l40.6,32.5c273.8,219,506.3,485.1,686.7,785.7l0,0l0,0
		c180.4-300.6,412.9-566.7,686.7-785.7l40.6-32.5L2000,454.5L1676.2,670.4z"/>
	<path d="M533.9,619.6c3.8,0.1,7.7,0.1,11.5,0.1c170.6,0,319.3-94,397-233.1c0,0,0,0,0,0c1.2-2.5,2.5-5,4-7.4c0,0,0,0,0,0
		c11.2-17.7,31-29.4,53.5-29.4s42.3,11.7,53.5,29.4c1.5,2.4,2.9,4.8,4,7.4c0,0,0,0,0,0c77.7,139.1,226.4,233.1,397,233.1
		c3.9,0,7.7,0,11.5-0.1c235-5.8,424.5-194.5,434.8-429.3L1909.1,0H90.9l8.2,190.1C109.3,425,298.8,613.8,533.9,619.6z M1726.1,180.3
		c-7.8,143.2-126.4,256.9-271.6,256.9c-145.2,0-263.8-21.3-271.6-164.5L1726.1,180.3z M817,272.7
		c-7.8,143.2-126.4,164.5-271.6,164.5c-145.2,0-263.8-113.7-271.6-256.9L817,272.7z"/>
</g>
</svg>
