<?xml version="1.0" encoding="utf-8"?>
<!-- Generator: Adobe Illustrator 22.0.0, SVG Export Plug-In . SVG Version: 6.00 Build 0)  -->
<svg version="1.1" id="Layer_1" xmlns="http://www.w3.org/2000/svg" xmlns:xlink="http://www.w3.org/1999/xlink" x="0px" y="0px"
	 viewBox="0 0 2000 2000" style="enable-background:new 0 0 2000 2000;" xml:space="preserve">
<g>
	<path d="M1516.3,1493.6l29.2,194l-85,34.5c-295.3,119.9-625.6,119.9-920.9,0l-85-34.5l29.2-194C193.8,1541.4,0,1628.2,0,1727.3
		C0,1877.9,447.7,2000,1000,2000s1000-122.1,1000-272.7C2000,1628.2,1806.2,1541.4,1516.3,1493.6z"/>
	<path d="M1454.5,1636.4L1454.5,1636.4l-142.9-1000l51.9-454.5l272.7-90.9L2000,0h-727.3L818.2,181.8l-90.9,181.8L545.4,1636.4h0
		C837.2,1753.1,1162.8,1753.1,1454.5,1636.4z"/>
</g>
</svg>
