<?xml version="1.0" encoding="utf-8"?>
<!-- Generator: Adobe Illustrator 22.0.0, SVG Export Plug-In . SVG Version: 6.00 Build 0)  -->
<svg version="1.1" id="Layer_1" xmlns="http://www.w3.org/2000/svg" xmlns:xlink="http://www.w3.org/1999/xlink" x="0px" y="0px"
	 viewBox="0 0 2000 2000" style="enable-background:new 0 0 2000 2000;" xml:space="preserve">
<g>
	<path d="M1658.1,1818.2H523.7c-38.2,0-69.2,31-69.2,69.2V2000h1272.7v-112.6C1727.3,1849.2,1696.3,1818.2,1658.1,1818.2z"/>
	<path d="M1181.8,1677.3v-292.9c0-13.3-5.3-26-14.6-35.4l-243.4-243.4c-9.4-9.4-22.1-14.6-35.4-14.6H475.3c-13.3,0-26-5.3-35.4-14.6
		l-61.6-61.6c-9.4-9.4-14.6-22.1-14.6-35.4V748c0-13.3,5.3-26,14.6-35.4l61.6-61.6c9.4-9.4,22.1-14.6,35.4-14.6h111.1
		c27.6,0,50-22.4,50-50V413.6c0-27.6-22.4-50-50-50H208.6c-16.7,0-32.3,8.4-41.6,22.3L8.4,623.8C2.9,632,0,641.6,0,651.5v515.2
		c0,9.9,2.9,19.5,8.4,27.7L348.8,1705c9.3,13.9,24.9,22.3,41.6,22.3h741.4C1159.4,1727.3,1181.8,1704.9,1181.8,1677.3z"/>
	<path d="M413.6,272.7h263.6c27.6,0,50,22.4,50,50v354.5c0,27.6-22.4,50-50,50H504.5c-27.6,0-50,22.4-50,50V950
		c0,27.6,22.4,50,50,50h354.5c27.6,0,50-22.4,50-50V121.8c0-18.9-10.7-36.3-27.6-44.7L737.8,5.3C730.9,1.8,723.2,0,715.5,0H557.3
		c-7.8,0-15.4,1.8-22.4,5.3L391.3,77.1c-16.9,8.5-27.6,25.8-27.6,44.7v100.9C363.6,250.3,386,272.7,413.6,272.7z"/>
	<path d="M1050,1000h172.7c27.6,0,50-22.4,50-50V202.5c0-13.3-5.3-26-14.6-35.4l-61.6-61.6c-9.4-9.4-22.1-14.6-35.4-14.6H1050
		c-27.6,0-50,22.4-50,50V950C1000,977.6,1022.4,1000,1050,1000z"/>
	<path d="M1413.6,1090.9h172.7c27.6,0,50-22.4,50-50V293.4c0-13.3-5.3-26-14.6-35.4l-61.6-61.6c-9.4-9.4-22.1-14.6-35.4-14.6h-111.1
		c-27.6,0-50,22.4-50,50v809.1C1363.6,1068.5,1386,1090.9,1413.6,1090.9z"/>
	<path d="M1985.4,349l-61.6-61.6c-9.4-9.4-22.1-14.6-35.4-14.6h-111.1c-27.6,0-50,22.4-50,50v809.1c0,27.6,22.4,50,50,50H1950
		c27.6,0,50-22.4,50-50V384.3C2000,371.1,1994.7,358.4,1985.4,349z"/>
	<path d="M1859.1,1272.7H1748c-13.3,0-26-5.3-35.4-14.6l-61.6-61.6c-9.4-9.4-22.1-14.6-35.4-14.6h-231.3c-13.3,0-26-5.3-35.4-14.6
		l-61.6-61.6c-9.4-9.4-22.1-14.6-35.4-14.6h-131.3c-44.5,0-66.9,53.9-35.4,85.4l172.7,172.7c9.4,9.4,14.6,22.1,14.6,35.4v292.9
		c0,27.6,22.4,50,50,50h464.6c18.9,0,36.3-10.7,44.7-27.6l71.8-143.6c3.5-6.9,5.3-14.6,5.3-22.4v-210.9
		C1909.1,1295.1,1886.7,1272.7,1859.1,1272.7z"/>
</g>
</svg>
