<?xml version="1.0" encoding="utf-8"?>
<!-- Generator: Adobe Illustrator 22.0.0, SVG Export Plug-In . SVG Version: 6.00 Build 0)  -->
<svg version="1.1" id="Layer_1" xmlns="http://www.w3.org/2000/svg" xmlns:xlink="http://www.w3.org/1999/xlink" x="0px" y="0px"
	 viewBox="0 0 2000 2000" style="enable-background:new 0 0 2000 2000;" xml:space="preserve">
<g>
	<path d="M1818.2,1818.2H1000V2000h1000v0C2000,1899.6,1918.6,1818.2,1818.2,1818.2z"/>
	<path d="M909.1,747.9V433v-16.8c-258,43.3-454.5,267.6-454.5,537.9c0,270.3,196.6,494.6,454.5,537.9V747.9z"/>
	<path d="M1078.8,635.9c7.7-13.4,12.2-28.9,12.2-45.5c0-16.6-4.4-32.1-12.2-45.4c-15.7-27.2-45.1-45.5-78.8-45.5v181.8
		C1033.6,681.4,1063,663.1,1078.8,635.9z"/>
	<path d="M1447.2,1719.9L1447.2,1719.9c-54.9-54.9-121.9-96.3-195.7-120.9l0,0c-95.6-31.8-160.2-121.3-160.3-222.1l-0.4-629
		c-26.7,15.5-57.8,24.3-90.9,24.3v727.3v227.7l444.1,0C1448,1727.3,1449.9,1722.6,1447.2,1719.9z"/>
	<polygon points="363.6,814.2 0,952.1 363.6,1088.5 	"/>
	<polygon points="181.8,1543.7 558,1447.4 398.6,1226 	"/>
	<polygon points="772.7,0 636.7,363.6 909.1,363.6 	"/>
	<polygon points="773.6,1909.1 909.3,1545.5 636.4,1545.5 	"/>
	<polygon points="559,460 182.8,363.6 399.6,681.3 	"/>
	<path d="M1456.5,635.9l-92.9,455h90.9l90.9-455h0l90.9,455h90.9l-90.9-455v0c0-50.2-40.7-90.9-90.9-90.9h-369.3
		c3.7,14.5,5.7,29.8,5.7,45.4c0,15.7-2,30.9-5.7,45.5H1456.5z"/>
	<path d="M1545.5,1363.6c272.7,0,272.7-181.8,272.7-181.8h-545.5C1272.7,1181.8,1272.7,1363.6,1545.5,1363.6z"/>
	<path d="M1090.9,433l0-205.7c0-25.1-20.4-45.5-45.5-45.5h0c-25.1,0-45.5,20.4-45.5,45.5v181.4c0.8,0,1.6,0,2.4,0
		C1034.6,409.1,1064.8,417.9,1090.9,433z"/>
</g>
</svg>
