<?xml version="1.0" encoding="utf-8"?>
<!-- Generator: Adobe Illustrator 22.0.0, SVG Export Plug-In . SVG Version: 6.00 Build 0)  -->
<svg version="1.1" id="Layer_1" xmlns="http://www.w3.org/2000/svg" xmlns:xlink="http://www.w3.org/1999/xlink" x="0px" y="0px"
	 viewBox="0 0 2000 2000" style="enable-background:new 0 0 2000 2000;" xml:space="preserve">
<g>
	<path d="M1718.2,1331.4h-80c-201.8,0-365.5-163.6-365.5-365.5v0c0-99.4-80.6-180-180-180H907.3c-99.4,0-180,80.6-180,180v0
		c0,201.8-163.6,365.5-365.5,365.5h-80c-55.2,0-100,44.8-100,100V1572c0,134.7,63.4,261.6,171.2,342.4l0,0
		c119.5,89.6,277.1,110.5,415.8,55l231.2-92.5l231.2,92.5c138.7,55.5,296.3,34.6,415.8-55l0,0c107.8-80.8,171.2-207.7,171.2-342.4
		v-140.5C1818.2,1376.2,1773.4,1331.4,1718.2,1331.4z"/>
	<path d="M545.5,909.1l81-121.4c63-94.5,169.1-151.3,282.7-151.3h0l-90.9-272.7L909.1,0L643.8,265.3
		C525.5,383.5,474.2,553,507,716.9L545.5,909.1z"/>
	<path d="M1090.9,636.4c113.6,0,219.7,56.8,282.7,151.3l81,121.4l38.4-192.2c32.8-163.9-18.5-333.4-136.7-451.6L1090.9,0l90.9,363.6
		L1090.9,636.4L1090.9,636.4z"/>
	<path d="M1949.7,937.2l-313.4-391.7l90.9,363.6l-54.7,164.1c-17.8,53.4,22,108.6,78.3,108.6h0c43.1,0,84.4,17.1,114.9,47.6
		l134.2,134.2v-283.2C2000,1028.4,1982.3,977.8,1949.7,937.2z"/>
	<path d="M249.1,1181.8c56.3,0,96.1-55.2,78.3-108.6l-54.7-164.1l90.9-363.6L50.3,937.2C17.7,977.8,0,1028.4,0,1080.5v283.2
		l134.2-134.2C164.7,1198.9,206,1181.8,249.1,1181.8L249.1,1181.8z"/>
</g>
</svg>
