<?xml version="1.0" encoding="utf-8"?>
<!-- Generator: Adobe Illustrator 22.0.0, SVG Export Plug-In . SVG Version: 6.00 Build 0)  -->
<svg version="1.1" id="Layer_1" xmlns="http://www.w3.org/2000/svg" xmlns:xlink="http://www.w3.org/1999/xlink" x="0px" y="0px"
	 viewBox="0 0 2000 2000" style="enable-background:new 0 0 2000 2000;" xml:space="preserve">
<g>
	<path d="M1545.5,732.3c74.2,0,143.9-28.9,196.4-81.3c52.5-52.5,81.3-122.2,81.3-196.4s-28.9-143.9-81.3-196.4
		c-52.5-52.5-122.2-81.3-196.4-81.3s-143.9,28.9-196.4,81.3s-81.3,122.2-81.3,196.4s28.9,143.9,81.3,196.4
		C1401.5,703.4,1471.3,732.3,1545.5,732.3z M1634.1,664.4c-28,11.9-57.9,17.9-88.6,17.9c-30.8,0-60.6-6-88.6-17.9
		c-15.3-6.5-29.8-14.6-43.3-24.2l131.9-88.4l131.9,88.4C1663.9,649.8,1649.4,657.9,1634.1,664.4z M1463.2,496.6l37.4,25.1
		l-63.1,42.3L1463.2,496.6z M1402.1,395.6h46.1l-9.4,24.6L1402.1,395.6z M1653.5,564l-63.1-42.3l37.4-25.1L1653.5,564z
		 M1642.7,395.6h46.1l-36.7,24.6L1642.7,395.6z M1545.5,491.6l-64-42.9l20.3-53.2h87.4l20.3,53.2L1545.5,491.6z M1773.2,454.6
		c0,30.8-6,60.6-17.9,88.6v0c-8.7,20.6-20.3,39.6-34.6,56.8l-50.4-131.9l97-65C1771.2,419.9,1773.2,437.1,1773.2,454.6z
		 M1634.1,244.7c27.1,11.5,51.5,27.9,72.4,48.8c15.5,15.5,28.6,33,39,52h-121.9l-44.4-116.3C1598.1,232.1,1616.5,237.3,1634.1,244.7
		z M1545.5,281.2l24.6,64.4h-49.2L1545.5,281.2z M1384.4,293.5c20.9-20.9,45.3-37.4,72.4-48.8c17.6-7.4,36-12.6,54.9-15.4
		l-44.4,116.3h-121.9C1355.9,326.5,1368.9,309,1384.4,293.5z M1317.7,454.6c0-17.4,2-34.7,5.8-51.5l97,65l-50.4,131.9
		c-14.3-17.1-25.9-36.2-34.6-56.8v0C1323.7,515.1,1317.7,485.3,1317.7,454.6z"/>
	<path d="M1349.1,1378.2c52.5,52.5,122.2,81.3,196.4,81.3s143.9-28.9,196.4-81.3c52.5-52.5,81.3-122.2,81.3-196.4
		s-28.9-143.9-81.3-196.4c-52.5-52.5-122.2-81.3-196.4-81.3s-143.9,28.9-196.4,81.3s-81.3,122.2-81.3,196.4
		S1296.6,1325.7,1349.1,1378.2z M1456.8,1391.7c-27.1-11.5-51.5-27.9-72.4-48.8c-15.5-15.5-28.6-33-39-52h121.9l44.4,116.3
		C1492.8,1404.3,1474.4,1399.1,1456.8,1391.7z M1627.8,1139.7l-37.4-25.1l63.1-42.3L1627.8,1139.7z M1688.8,1240.8h-46.1l9.4-24.6
		L1688.8,1240.8z M1609.5,1187.7l-20.3,53.2h-87.4l-20.3-53.2l64-42.9L1609.5,1187.7z M1463.2,1139.7l-25.7-67.4l63.1,42.3
		L1463.2,1139.7z M1438.8,1216.2l9.4,24.6h-46.1L1438.8,1216.2z M1545.5,1355.2l-24.6-64.4h49.2L1545.5,1355.2z M1706.5,1342.8
		c-20.9,20.9-45.3,37.4-72.4,48.8c-17.6,7.4-36,12.6-54.9,15.4l44.4-116.3h121.9C1735.1,1309.9,1722,1327.4,1706.5,1342.8z
		 M1755.3,1093.2L1755.3,1093.2c11.9,28,17.9,57.9,17.9,88.6c0,17.4-2,34.7-5.8,51.5l-97-65l50.4-131.9
		C1735,1053.6,1746.6,1072.6,1755.3,1093.2z M1456.8,972c28-11.9,57.9-17.9,88.6-17.9c30.8,0,60.6,6,88.6,17.9
		c15.3,6.5,29.8,14.6,43.3,24.2l-131.9,88.4l-131.9-88.4C1427,986.6,1441.6,978.4,1456.8,972z M1335.6,1093.2
		c8.7-20.6,20.3-39.6,34.6-56.8l50.4,131.9l-97,65c-3.9-16.8-5.8-34-5.8-51.5C1317.7,1151.1,1323.7,1121.2,1335.6,1093.2
		L1335.6,1093.2z"/>
	<path d="M727.3,1363.6H363.6c-50.2,0-90.9,40.7-90.9,90.9v0h545.5v0C818.2,1404.3,777.5,1363.6,727.3,1363.6z"/>
	<path d="M727.3,1181.8H363.6c-50.2,0-90.9,40.7-90.9,90.9v0h545.5v0C818.2,1222.5,777.5,1181.8,727.3,1181.8z"/>
	<path d="M727.3,1000H363.6c-50.2,0-90.9,40.7-90.9,90.9v0h545.5v0C818.2,1040.7,777.5,1000,727.3,1000z"/>
	<path d="M727.3,818.2H363.6c-50.2,0-90.9,40.7-90.9,90.9v0h545.5v0C818.2,858.9,777.5,818.2,727.3,818.2z"/>
	<path d="M727.3,636.4H363.6c-50.2,0-90.9,40.7-90.9,90.9v0h545.5v0C818.2,677.1,777.5,636.4,727.3,636.4z"/>
	<path d="M727.3,454.5H363.6c-50.2,0-90.9,40.7-90.9,90.9v0h545.5v0C818.2,495.3,777.5,454.5,727.3,454.5z"/>
	<path d="M227.3,272.7h636.4c25.1,0,45.5-20.4,45.5-45.5v0c0-25.1-20.4-45.5-45.5-45.5H227.3c-25.1,0-45.5,20.4-45.5,45.5v0
		C181.8,252.4,202.2,272.7,227.3,272.7z"/>
	<path d="M1910,0h-637.3c-50.2,0-90.9,40.7-90.9,90.9v0h727.3v1454.5h-727.3V225.8c0-28.2-11.2-55.2-31.1-75.1L1000,0H90
		C40.3,0,0,40.3,0,90v1455.5c0,50.2,40.7,90.9,90.9,90.9h0v90.9v26.6v6c0,32.2,26.1,58.3,58.3,58.3H1000V2000l90.9-90.9l90.9,90.9
		v-181.8h669c32.2,0,58.3-26.1,58.3-58.3l0,0v-32.6v-90.9l0,0c50.2,0,90.9-40.7,90.9-90.9V90C2000,40.3,1959.7,0,1910,0z
		 M1000,1727.3H272.7c-50.2,0-90.9-40.7-90.9-90.9l0,0H1000V1727.3z M1000,1545.5H90.9V90.9H1000V1545.5z M1818.2,1636.4
		c0,50.2-40.7,90.9-90.9,90.9h-545.5v-90.9H1818.2L1818.2,1636.4z"/>
</g>
</svg>
