<?xml version="1.0" encoding="utf-8"?>
<!-- Generator: Adobe Illustrator 22.0.0, SVG Export Plug-In . SVG Version: 6.00 Build 0)  -->
<svg version="1.1" id="Layer_1" xmlns="http://www.w3.org/2000/svg" xmlns:xlink="http://www.w3.org/1999/xlink" x="0px" y="0px"
	 viewBox="0 0 2000 2000" style="enable-background:new 0 0 2000 2000;" xml:space="preserve">
<path d="M963.9,925.6l50-592.8H1125l499.9-249l-594.6,53.8L1042-0.1l-666.9,333h294.7c26.2,0,47.9,20.2,49.9,46.2l65.8,874.4
	c2.8,37.1,43.7,58.3,75.6,39.1l244-146.3c38.2-22.9,85,11.8,74.2,55L1042,1750.7l-167-82l166.5,331.5l333.5-331.5l-250,82
	l298.1-819.1c14.3-39.3-23.1-77.8-62.8-64.5l-330.8,110.3C995.4,988.6,960.9,961.4,963.9,925.6z"/>
</svg>
