<?xml version="1.0" encoding="utf-8"?>
<!-- Generator: Adobe Illustrator 22.0.0, SVG Export Plug-In . SVG Version: 6.00 Build 0)  -->
<svg version="1.1" id="Layer_1" xmlns="http://www.w3.org/2000/svg" xmlns:xlink="http://www.w3.org/1999/xlink" x="0px" y="0px"
	 viewBox="0 0 2000 2000" style="enable-background:new 0 0 2000 2000;" xml:space="preserve">
<g>
	<polygon points="1042,-0.1 815.1,113.2 1034.1,93.3 	"/>
	<path d="M1002.2,471c-29.3,0-52.3-25-49.8-54.2h-176c2.2,29-20.8,53.7-49.9,53.7l65,863.6l416.9-250l-152.3,609.6
		c19.8,0,34.2,18.6,29.5,37.7h16.2c6.2-17,22.3-28.3,40.4-28.3l316.2-869l-500.9,167L1002.2,471z"/>
	<polygon points="1013.9,332.8 1125,332.8 1624.9,83.9 1146,127.2 1030.4,137.7 708,166.9 708,166.6 375.1,332.8 716.2,332.8 
		716.2,332.9 1013.8,333.7 	"/>
	<polygon points="1076.2,1766.2 1031.3,1745.4 875,1668.7 1041,1999.1 1041.1,1999.3 1041.5,2000.1 1375,1668.7 1150,1742.5 	"/>
</g>
</svg>
