<?xml version="1.0" encoding="utf-8"?>
<!-- Generator: Adobe Illustrator 22.0.0, SVG Export Plug-In . SVG Version: 6.00 Build 0)  -->
<svg version="1.1" id="Layer_1" xmlns="http://www.w3.org/2000/svg" xmlns:xlink="http://www.w3.org/1999/xlink" x="0px" y="0px"
	 viewBox="0 0 2000 2000" style="enable-background:new 0 0 2000 2000;" xml:space="preserve">
<path d="M1034.6,308.5h102.7c6.6,0,13.1-1.5,19-4.5l295.8-147.3c42.1-21,24-84.7-22.8-80.4L1101.7,106
	c-26.3,2.4-48.4-19.6-46.2-45.9l1.2-13.9c2.8-33.1-31.7-56.4-61.4-41.6L547.9,228c-40.2,20-25.9,80.6,19,80.6h126.2
	c22.2,0,40.7,17.1,42.4,39.3l68.3,907.9c2.4,31.5,37.1,49.5,64.3,33.3l275.9-165.4c32.5-19.5,72.3,10,63.1,46.8l-131.3,525.5
	c-6.6,26.3-35.7,39.8-60,27.9l-122.2-60l168.9,336.3l338.3-336.3l-170.5,55.9c-33.7,11.1-65.3-21.6-53.2-54.9l278.3-764.8
	c12.2-33.4-19.7-66.1-53.4-54.9l-363.5,121.2c-29,9.7-58.4-13.5-55.8-43.9L1034.6,308.5z"/>
</svg>
