<?xml version="1.0" encoding="utf-8"?>
<!-- Generator: Adobe Illustrator 22.0.0, SVG Export Plug-In . SVG Version: 6.00 Build 0)  -->
<svg version="1.1" id="Layer_1" xmlns="http://www.w3.org/2000/svg" xmlns:xlink="http://www.w3.org/1999/xlink" x="0px" y="0px"
	 viewBox="0 0 2000 2000" style="enable-background:new 0 0 2000 2000;" xml:space="preserve">
<g>
	<path d="M1140.2,1140.2L1028,1587.7c-3.8,15.3,5.5,30.8,20.7,34.6c2.3,0.6,4.7,0.9,7,0.9c12.8,0,24.4-8.7,27.7-21.6l145.7-581.2
		l-416.3,249.6l-2.6-35.1l230.1-130.2c13.7-7.8,18.6-25.2,10.8-38.9c-7.8-13.7-25.2-18.6-38.9-10.8l-171.9,97.3L784.8,394
		c1,0.1,2,0.2,3,0.2c0,0,0,0,0,0l324.1-0.5l85-42.3c0.1-0.1,0.3-0.1,0.4-0.2l532.3-265.1l-683.2,61.8L1058.9,0L270.4,393.7h419.2
		l73.2,972.8L1140.2,1140.2z M993.5,96.5l-9.7,114.4l448.6-40.6L1178,297l-466.7-0.7c0,0,0,0,0,0c-15.7,0-28.5,12.8-28.5,28.5
		c0,4.2,0.9,8.2,2.5,11.7H512.6L993.5,96.5z"/>
	<path d="M1161.1,1644.4l308.5-847.8L977.9,960.5l39.7-475c1.3-15.7-10.4-29.5-26.1-30.8c-15.7-1.3-29.5,10.4-30.8,26.1l-46.9,561.3
		l461.8-153.9L1141,1532.8c0,0,0,0,0,0l-82.7,227.2l179.3-58.8l-204,202.8L931,1699.7l43.6,21.5c14.1,7,31.3,1.1,38.2-13
		c7-14.1,1.1-31.3-13-38.2l-196.2-96.5l214.3,426.6l430.7-428.2l-296.5,97.3L1161.1,1644.4
		C1161.1,1644.4,1161.1,1644.4,1161.1,1644.4z"/>
</g>
</svg>
