<?xml version="1.0" encoding="utf-8"?>
<!-- Generator: Adobe Illustrator 22.0.0, SVG Export Plug-In . SVG Version: 6.00 Build 0)  -->
<svg version="1.1" id="Layer_1" xmlns="http://www.w3.org/2000/svg" xmlns:xlink="http://www.w3.org/1999/xlink" x="0px" y="0px"
	 viewBox="0 0 2000 2000" style="enable-background:new 0 0 2000 2000;" xml:space="preserve">
<g>
	<polygon points="872.8,1662.7 968.7,1853.5 1000.6,1725.5 	"/>
	<path d="M1370.7,845.8l-414,138l49-581.4c2.4-28.4-20-52.8-48.5-52.8h0l-39.2,756.8c0,25.3-20.5,45.8-45.8,45.8V349.5H714.7
		l73.2,973l424.2-254.3l-169.4,678l-42.5,170.1l42,83.7l339.2-337.2l-254.3,83.4l304.8-837.5
		C1445.8,870.4,1409.4,832.9,1370.7,845.8z"/>
	<path d="M1030.9,105.2l4.2-50c3.3-39.5-37.9-67.5-73.4-49.8L364.3,303.8h649.9L1030.9,105.2z"/>
	<polygon points="1635.8,50.5 1077.3,101 1060.1,303.8 1127.2,303.8 	"/>
</g>
</svg>
